<svg width="32" height="32" viewBox="0 0 32 32" fill="none" xmlns="http://www.w3.org/2000/svg">
<path d="M15.9998 4.66666C9.74061 4.66666 4.6665 9.74076 4.6665 16C4.6665 22.2592 9.74061 27.3333 15.9998 27.3333C21.89 27.3333 26.73 22.8404 27.281 17.0943C27.3066 16.8269 27.1692 16.5702 26.9325 16.4432C26.6957 16.3162 26.4059 16.3437 26.1973 16.513C25.0511 17.4431 23.5914 18 21.9998 18C18.3179 18 15.3332 15.0152 15.3332 11.3333C15.3332 9.14652 16.3854 7.20564 18.014 5.98888C18.2293 5.828 18.3269 5.55354 18.2616 5.29281C18.1963 5.03207 17.9808 4.83607 17.715 4.7957C17.1553 4.71069 16.5825 4.66666 15.9998 4.66666Z" fill="#1E1E22"/>
</svg>
