<svg width="32" height="32" viewBox="0 0 32 32" fill="none" xmlns="http://www.w3.org/2000/svg">
<path d="M13.333 17.6667C13.8853 17.6667 14.333 18.1144 14.333 18.6667V21.3333C14.333 21.8856 13.8853 22.3333 13.333 22.3333C12.7807 22.3333 12.333 21.8856 12.333 21.3333V18.6667C12.333 18.1144 12.7807 17.6667 13.333 17.6667Z" fill="white"/>
<path d="M19.6663 18.6667C19.6663 18.1144 19.2186 17.6667 18.6663 17.6667C18.1141 17.6667 17.6663 18.1144 17.6663 18.6667V21.3333C17.6663 21.8856 18.1141 22.3333 18.6663 22.3333C19.2186 22.3333 19.6663 21.8856 19.6663 21.3333V18.6667Z" fill="white"/>
<path fill-rule="evenodd" clip-rule="evenodd" d="M12.8657 4.49998C13.1418 4.02169 12.978 3.4101 12.4997 3.13396C12.0214 2.85782 11.4098 3.02169 11.1336 3.49998L8.46698 8.11879C8.42703 8.18798 8.39629 8.25996 8.37438 8.33332H7.99967C5.97463 8.33332 4.33301 9.97494 4.33301 12C4.33301 13.1455 4.8583 14.1683 5.68113 14.8407L6.57039 20.9536L7.16604 23.7445C7.52293 25.4166 8.88799 26.6868 10.5815 26.9224C14.1763 27.4226 17.8231 27.4226 21.4179 26.9224C23.1114 26.6868 24.4764 25.4166 24.8333 23.7445L25.429 20.9536L26.3182 14.8407C27.1411 14.1683 27.6663 13.1455 27.6663 12C27.6663 9.97494 26.0247 8.33332 23.9997 8.33332H23.625C23.6031 8.25996 23.5723 8.18798 23.5324 8.11879L20.8657 3.49998C20.5896 3.02169 19.978 2.85782 19.4997 3.13396C19.0214 3.4101 18.8575 4.02169 19.1337 4.49998L21.3468 8.33332H10.6525L12.8657 4.49998ZM24.1776 15.6624C24.1187 15.6652 24.0593 15.6667 23.9997 15.6667H7.99967C7.94001 15.6667 7.88068 15.6652 7.82172 15.6624L8.54007 20.6006L9.12199 23.327C9.3033 24.1765 9.99678 24.8218 10.8571 24.9415C14.2691 25.4162 17.7303 25.4162 21.1422 24.9415C22.0026 24.8218 22.6961 24.1765 22.8774 23.327L23.4593 20.6006L24.1776 15.6624ZM6.33301 12C6.33301 11.0795 7.0792 10.3333 7.99967 10.3333H23.9997C24.9201 10.3333 25.6663 11.0795 25.6663 12C25.6663 12.9205 24.9201 13.6667 23.9997 13.6667H7.99967C7.0792 13.6667 6.33301 12.9205 6.33301 12Z" fill="white"/>
</svg>
