<svg width="32" height="32" viewBox="0 0 32 32" fill="none" xmlns="http://www.w3.org/2000/svg">
<path fill-rule="evenodd" clip-rule="evenodd" d="M4.33301 13.3731C4.33301 9.7724 7.49186 7 11.1997 7C13.111 7 14.7928 7.89618 15.9997 9.05578C17.2066 7.89618 18.8884 7 20.7997 7C24.5075 7 27.6663 9.7724 27.6663 13.3731C27.6663 15.8396 26.6145 18.0086 25.1572 19.8421C23.7025 21.6723 21.7996 23.2257 19.9776 24.488C19.2817 24.9701 18.5777 25.4148 17.9334 25.743C17.3284 26.0511 16.6327 26.3333 15.9997 26.3333C15.3667 26.3333 14.671 26.0511 14.066 25.743C13.4216 25.4148 12.7176 24.9701 12.0217 24.488C10.1997 23.2257 8.29684 21.6723 6.8421 19.8421C5.38485 18.0086 4.33301 15.8396 4.33301 13.3731ZM11.1997 9C8.42734 9 6.33301 11.0388 6.33301 13.3731C6.33301 15.2444 7.12739 16.9867 8.4078 18.5976C9.69072 20.2117 11.4169 21.6359 13.1607 22.8439C13.8205 23.3011 14.442 23.69 14.9736 23.9608C15.5445 24.2515 15.8752 24.3333 15.9997 24.3333C16.1241 24.3333 16.4548 24.2515 17.0257 23.9608C17.5574 23.69 18.1789 23.3011 18.8387 22.8439C20.5824 21.6359 22.3086 20.2117 23.5916 18.5976C24.872 16.9867 25.6663 15.2444 25.6663 13.3731C25.6663 11.0388 23.572 9 20.7997 9C19.2075 9 17.7207 9.95123 16.7924 11.1586C16.6031 11.4047 16.3102 11.549 15.9997 11.549C15.6891 11.549 15.3962 11.4047 15.2069 11.1586C14.2786 9.95123 12.7919 9 11.1997 9Z" fill="white"/>
</svg>
