<svg width="32" height="32" viewBox="0 0 32 32" fill="none" xmlns="http://www.w3.org/2000/svg">
<path fill-rule="evenodd" clip-rule="evenodd" d="M19.1805 20.5943C15.6468 23.4245 10.4743 23.2017 7.19854 19.926C3.68382 16.4113 3.68382 10.7128 7.19854 7.19811C10.7133 3.68339 16.4117 3.68339 19.9265 7.19811C23.2022 10.4738 23.4249 15.6464 20.5947 19.1801L27.4689 26.0543C27.8594 26.4448 27.8594 27.0779 27.4689 27.4685C27.0784 27.859 26.4452 27.859 26.0547 27.4685L19.1805 20.5943ZM8.61275 18.5118C5.87908 15.7781 5.87908 11.346 8.61275 8.61233C11.3464 5.87866 15.7786 5.87866 18.5122 8.61233C21.2439 11.344 21.2459 15.7716 18.5183 18.5058C18.5162 18.5078 18.5142 18.5098 18.5122 18.5118C18.5102 18.5138 18.5082 18.5158 18.5062 18.5178C15.7721 21.2455 11.3444 21.2435 8.61275 18.5118Z" fill="white"/>
</svg>
